:FULLY-SPECIFIED
:FORCE-ALL-JOINTS-BE-3DOF
:DEGREES
2650
root -1.2416 15.1611 -28.6852 1242.21 -76.344 -165.359
lfemur -54.4201 25.2517 -12.5398
ltibia 68.0674 0 0
lfoot 0.883707 7.2709 0
ltoes -29.2524 0 0
rfemur -36.5138 -17.5223 24.692
rtibia 69.0471 0 0
rfoot -23.8462 -4.86904 0
rtoes -3.75006 0 0
lowerback 19.1064 4.00834 -0.892234
upperback -0.110742 5.16564 1.12831
thorax -11.0353 2.48387 0.302982
lowerneck -2.57377 9.23037 -1.12618
upperneck 3.9383 12.3159 0.991762
head 1.51564 6.14736 0.737806
lclavicle 4.41505e-14 1.13024e-14 0
lhumerus 73.4241 -31.6655 36.1453
lradius 107.164 0 0
lwrist -27.3302 0 0
lhand -36.9755 387.867 0
lfingers 7.12502 0 0
lthumb -10.0511 -662.387 0
rclavicle 4.41505e-14 1.13024e-14 0
rhumerus 7.74391 74.1686 -68.2561
rradius 99.2631 0 0
rwrist -33.0771 0 0
rhand -0.129326 -391.846 0
rfingers 7.12502 0 0
rthumb 25.4666 299.832 0
2651
root -1.34371 15.1321 -28.6546 1242.81 -76.2264 -165.981
lfemur -54.4263 25.7174 -12.3527
ltibia 67.8483 0 0
lfoot 1.0945 7.04917 0
ltoes -28.8287 0 0
rfemur -36.4168 -17.6195 24.5573
rtibia 69.4413 0 0
rfoot -24.1014 -5.22723 0
rtoes -3.97921 0 0
lowerback 19.0612 4.06551 -0.839617
upperback -0.15942 5.25647 1.13528
thorax -11.061 2.52453 0.259443
lowerneck -2.57442 9.29752 -1.0062
upperneck 4.00773 12.4005 0.970227
head 1.54518 6.19055 0.719948
lclavicle 4.29713e-14 1.04787e-14 0
lhumerus 71.6953 -30.6321 37.2792
lradius 107.228 0 0
lwrist -27.1172 0 0
lhand -37.1565 387.995 0
lfingers 7.12502 0 0
lthumb -10.2258 -662.266 0
rclavicle 4.29713e-14 1.04787e-14 0
rhumerus 6.13258 73.7802 -69.2799
rradius 99.9046 0 0
rwrist -34.6903 0 0
rhand 0.0272137 -391.717 0
rfingers 7.12502 0 0
rthumb 25.6167 299.981 0
2652
root -1.453 15.1008 -28.6211 1243.48 -76.115 -166.666
lfemur -54.4396 26.219 -12.1541
ltibia 67.6236 0 0
lfoot 1.31859 6.81062 0
ltoes -28.3777 0 0
rfemur -36.3172 -17.7267 24.4152
rtibia 69.8676 0 0
rfoot -24.3757 -5.60841 0
rtoes -4.2229 0 0
lowerback 19.0149 4.12671 -0.783487
upperback -0.210701 5.35363 1.14287
thorax -11.0889 2.56801 0.21306
lowerneck -2.57454 9.37113 -0.877325
upperneck 4.08024 12.4933 0.946527
head 1.57605 6.23793 0.700623
lclavicle 4.16183e-14 9.59387e-15 0
lhumerus 69.8684 -29.5327 38.4811
lradius 107.308 0 0
lwrist -26.8915 0 0
lhand -37.3371 388.109 0
lfingers 7.12502 0 0
lthumb -10.4001 -662.161 0
rclavicle 4.16183e-14 9.59387e-15 0
rhumerus 4.41808 73.3756 -70.3711
rradius 100.598 0 0
rwrist -36.4177 0 0
rhand 0.195308 -391.579 0
rfingers 7.12502 0 0
rthumb 25.7779 300.14 0
2653
root -1.56876 15.0674 -28.5853 1244.2 -76.0077 -167.406
lfemur -54.4584 26.7527 -11.9449
ltibia 67.393 0 0
lfoot 1.55431 6.5568 0
ltoes -27.9022 0 0
rfemur -36.2146 -17.8425 24.2661
rtibia 70.3223 0 0
rfoot -24.6669 -6.01083 0
rtoes -4.48014 0 0
lowerback 18.9673 4.19152 -0.724164
upperback -0.264441 5.4565 1.15105
thorax -11.1187 2.61405 0.164137
lowerneck -2.57425 9.45029 -0.740497
upperneck 4.15574 12.5933 0.920971
head 1.60819 6.28892 0.680006
lclavicle 4.01045e-14 8.6535e-15 0
lhumerus 67.9503 -28.373 39.746
lradius 107.4 0 0
lwrist -26.6541 0 0
lhand -37.5168 388.208 0
lfingers 7.12502 0 0
lthumb -10.5734 -662.069 0
rclavicle 4.01045e-14 8.6535e-15 0
rhumerus 2.60885 72.9547 -71.524
rradius 101.338 0 0
rwrist -38.2481 0 0
rhand 0.373474 -391.432 0
rfingers 7.12502 0 0
rthumb 25.9488 300.308 0
2654
root -1.6903 15.0323 -28.5474 1244.96 -75.9023 -168.19
lfemur -54.4813 27.3145 -11.7262
ltibia 67.1565 0 0
lfoot 1.79995 6.28931 0
ltoes -27.405 0 0
rfemur -36.1091 -17.9658 24.1106
rtibia 70.802 0 0
rfoot -24.9731 -6.43273 0
rtoes -4.74995 0 0
lowerback 18.9183 4.25953 -0.661966
upperback -0.320494 5.56443 1.15979
thorax -11.1502 2.66236 0.11298
lowerneck -2.57369 9.53412 -0.596666
upperneck 4.23411 12.6992 0.893867
head 1.64157 6.34293 0.658274
lclavicle 3.84429e-14 7.66308e-15 0
lhumerus 65.9477 -27.1582 41.0688
lradius 107.502 0 0
lwrist -26.406 0 0
lhand -37.6953 388.295 0
lfingers 7.12502 0 0
lthumb -10.7455 -661.991 0
rclavicle 3.84429e-14 7.66308e-15 0
rhumerus 0.713316 72.5176 -72.7326
rradius 102.118 0 0
rwrist -40.1705 0 0
rhand 0.560231 -391.278 0
rfingers 7.12502 0 0
rthumb 26.1279 300.485 0
2655
root -1.8169 14.9955 -28.5079 1245.75 -75.7965 -169.009
lfemur -54.5069 27.9007 -11.4989
ltibia 66.9141 0 0
lfoot 2.05382 6.00969 0
ltoes -26.8888 0 0
rfemur -36.0004 -18.0952 23.9493
rtibia 71.303 0 0
rfoot -25.2923 -6.87236 0
rtoes -5.03135 0 0
lowerback 18.8677 4.33031 -0.597213
upperback -0.378716 5.6768 1.16905
thorax -11.1831 2.71266 0.0598942
lowerneck -2.57297 9.62171 -0.44678
upperneck 4.31524 12.81 0.865522
head 1.67613 6.39937 0.635603
lclavicle 3.66463e-14 6.62811e-15 0
lhumerus 63.8673 -25.8939 42.4445
lradius 107.611 0 0
lwrist -26.1482 0 0
lhand -37.872 388.368 0
lfingers 7.12502 0 0
lthumb -10.916 -661.926 0
rclavicle 3.66463e-14 6.62811e-15 0
rhumerus -1.26008 72.0644 -73.9911
rradius 102.932 0 0
rwrist -42.1736 0 0
rhand 0.754097 -391.117 0
rfingers 7.12502 0 0
rthumb 26.3138 300.67 0
2656
root -1.94785 14.9575 -28.4669 1246.57 -75.6882 -169.854
lfemur -54.5337 28.5074 -11.264
ltibia 66.6656 0 0
lfoot 2.31422 5.71953 0
ltoes -26.3566 0 0
rfemur -35.8885 -18.2296 23.7828
rtibia 71.8218 0 0
rfoot -25.6226 -7.32795 0
rtoes -5.32334 0 0
lowerback 18.8154 4.40347 -0.530224
upperback -0.438963 5.79296 1.17879
thorax -11.2171 2.76466 0.00518444
lowerneck -2.57223 9.71217 -0.291786
upperneck 4.39903 12.9243 0.836245
head 1.71183 6.45766 0.612168
lclavicle 3.47278e-14 5.55409e-15 0
lhumerus 61.7159 -24.5856 43.8681
lradius 107.723 0 0
lwrist -25.8817 0 0
lhand -38.0467 388.43 0
lfingers 7.12502 0 0
lthumb -11.0845 -661.873 0
rclavicle 3.47278e-14 5.55409e-15 0
rhumerus -3.30291 71.5949 -75.2937
rradius 103.774 0 0
rwrist -44.2462 0 0
rhand 0.95359 -390.951 0
rfingers 7.12502 0 0
rthumb 26.5051 300.861 0
2657
root -2.08246 14.9183 -28.4249 1247.41 -75.5751 -170.716
lfemur -54.5602 29.1308 -11.0225
ltibia 66.4111 0 0
lfoot 2.57946 5.4204 0
ltoes -25.811 0 0
rfemur -35.7732 -18.3677 23.6115
rtibia 72.3549 0 0
rfoot -25.962 -7.79774 0
rtoes -5.62495 0 0
lowerback 18.761 4.47858 -0.461318
upperback -0.501089 5.91229 1.18898
thorax -11.252 2.81808 -0.0508438
lowerneck -2.57158 9.80461 -0.132633
upperneck 4.48535 13.0411 0.806343
head 1.74862 6.51721 0.588145
lclavicle 3.27003e-14 4.44653e-15 0
lhumerus 59.5004 -23.2386 45.3345
lradius 107.835 0 0
lwrist -25.6075 0 0
lhand -38.219 388.482 0
lfingers 7.12502 0 0
lthumb -11.2507 -661.83 0
rclavicle 3.27003e-14 4.44653e-15 0
rhumerus -5.40673 71.1093 -76.6344
rradius 104.637 0 0
rwrist -46.3774 0 0
rhand 1.15723 -390.78 0
rfingers 7.12502 0 0
rthumb 26.7004 301.057 0
2658
root -2.22 14.8784 -28.3822 1248.26 -75.4552 -171.585
lfemur -54.5851 29.7671 -10.7754
ltibia 66.1505 0 0
lfoot 2.84786 5.11386 0
ltoes -25.2549 0 0
rfemur -35.6545 -18.5082 23.4362
rtibia 72.8987 0 0
rfoot -26.3085 -8.27998 0
rtoes -5.93519 0 0
lowerback 18.7045 4.55523 -0.390814
upperback -0.564951 6.03415 1.19959
thorax -11.2875 2.87264 -0.107885
lowerneck -2.57116 9.89812 0.0297315
upperneck 4.57411 13.1591 0.776126
head 1.78647 6.57743 0.563711
lclavicle 3.05767e-14 3.31094e-15 0
lhumerus 57.2274 -21.8585 46.8388
lradius 107.945 0 0
lwrist -25.3266 0 0
lhand -38.3884 388.523 0
lfingers 7.12502 0 0
lthumb -11.4141 -661.798 0
rclavicle 3.05767e-14 3.31094e-15 0
rhumerus -7.5631 70.6075 -78.0074
rradius 105.515 0 0
rwrist -48.5558 0 0
rhand 1.36353 -390.605 0
rfingers 7.12502 0 0
rthumb 26.8982 301.257 0
2659
root -2.35977 14.8378 -28.3392 1249.1 -75.3261 -172.453
lfemur -54.6067 30.4125 -10.5236
ltibia 65.8837 0 0
lfoot 3.1177 4.80149 0
ltoes -24.6911 0 0
rfemur -35.5321 -18.6498 23.2572
rtibia 73.4496 0 0
rfoot -26.6601 -8.7729 0
rtoes -6.25307 0 0
lowerback 18.6456 4.633 -0.319031
upperback -0.630402 6.15791 1.21057
thorax -11.3234 2.92806 -0.165635
lowerneck -2.57109 9.99181 0.194358
upperneck 4.66519 13.2773 0.745901
head 1.82532 6.63775 0.539041
lclavicle 2.83699e-14 2.15282e-15 0
lhumerus 54.9038 -20.4508 48.3759
lradius 108.047 0 0
lwrist -25.04 0 0
lhand -38.5546 388.554 0
lfingers 7.12502 0 0
lthumb -11.5744 -661.775 0
rclavicle 2.83699e-14 2.15282e-15 0
rhumerus -9.76359 70.0897 -79.4069
rradius 106.402 0 0
rwrist -50.7703 0 0
rhand 1.57101 -390.427 0
rfingers 7.12502 0 0
rthumb 27.0971 301.461 0
2660
root -2.50107 14.7969 -28.2962 1249.93 -75.1857 -173.309
lfemur -54.6238 31.063 -10.2682
ltibia 65.6106 0 0
lfoot 3.38731 4.48485 0
ltoes -24.1223 0 0
rfemur -35.4059 -18.7913 23.0752
rtibia 74.0041 0 0
rfoot -27.0149 -9.27475 0
rtoes -6.57762 0 0
lowerback 18.5843 4.71149 -0.246288
upperback -0.697299 6.28293 1.22189
thorax -11.3593 2.98406 -0.223788
lowerneck -2.5715 10.0848 0.3603
upperneck 4.75848 13.3945 0.715976
head 1.86513 6.69757 0.514311
lclavicle 2.6093e-14 9.77666e-16 0
lhumerus 52.5362 -19.0208 49.9408
lradius 108.141 0 0
lwrist -24.7488 0 0
lhand -38.7172 388.578 0
lfingers 7.12502 0 0
lthumb -11.7312 -661.76 0
rclavicle 2.6093e-14 9.77666e-16 0
rhumerus -11.9998 69.5557 -80.827
rradius 107.292 0 0
rwrist -53.0097 0 0
rhand 1.77819 -390.247 0
rfingers 7.12502 0 0
rthumb 27.2958 301.667 0
2661
root -2.64318 14.756 -28.2536 1250.74 -75.0319 -174.144
lfemur -54.6348 31.7148 -10.0102
ltibia 65.3311 0 0
lfoot 3.65498 4.16552 0
ltoes -23.5514 0 0
rfemur -35.2759 -18.9315 22.8908
rtibia 74.5585 0 0
rfoot -27.3709 -9.78377 0
rtoes -6.90785 0 0
lowerback 18.5202 4.79027 -0.172905
upperback -0.765496 6.40858 1.23353
thorax -11.3952 3.04034 -0.282038
lowerneck -2.57251 10.1761 0.526608
upperneck 4.85388 13.5094 0.686659
head 1.90586 6.75631 0.489696
lclavicle 2.37588e-14 -2.09007e-16 0
lhumerus 50.1316 -17.5741 51.5285
lradius 108.221 0 0
lwrist -24.4539 0 0
lhand -38.8759 388.593 0
lfingers 7.12502 0 0
lthumb -11.8842 -661.753 0
rclavicle 2.37588e-14 -2.09007e-16 0
rhumerus -14.2632 69.0057 -82.2618
rradius 108.179 0 0
rwrist -55.263 0 0
rhand 1.98359 -390.065 0
rfingers 7.12502 0 0
rthumb 27.4927 301.873 0
